<svg width="29" height="32" viewBox="0 0 29 32" fill="none" xmlns="http://www.w3.org/2000/svg">
<path d="M28.195 0.444741C27.9412 0.161603 27.5793 0 27.2 0H1.33556C0.956262 0 0.594326 0.161603 0.34057 0.444741C0.0868135 0.72788 -0.033387 1.10584 0.00801536 1.48247L2.94892 27.9573C3.00768 28.4955 3.38832 28.9456 3.90918 29.0938L13.8992 31.9479C14.0194 31.9826 14.1436 32 14.2664 32C14.3893 32 14.5135 31.9826 14.6337 31.9479L24.6237 29.0938C25.1446 28.9456 25.5239 28.4955 25.584 27.9573L28.5262 1.48247C28.569 1.10584 28.4488 0.72788 28.195 0.444741ZM21.6347 13.4544L21.0391 23.184L14.3105 25.3836L7.58197 23.184L7.32688 18.5309H10.7326L10.818 20.6464L14.3105 21.8311L17.803 20.6464L18.0581 16.8401H10.5629L10.3933 13.4558H18.2291L18.4841 10.0715H6.72989L6.47479 6.68581H22.0608L21.6347 13.4544Z" fill="#777777"/>
</svg>
