<svg width="43" height="32" viewBox="0 0 43 32" fill="none" xmlns="http://www.w3.org/2000/svg">
<path d="M42.1762 13.1973C42.0606 13.1066 40.9806 12.3022 38.7024 12.3022C38.1006 12.3048 37.5006 12.3555 36.9078 12.4542C36.4669 9.47284 34.0464 8.07196 33.9344 8.00707L33.3229 7.65863L32.9202 8.23107C32.4162 9.00085 31.9709 9.79551 31.7549 10.6871C31.3469 12.3893 31.5949 13.9875 32.4713 15.3537C31.4118 15.9359 29.6065 15.9875 29.2633 15.9999H1.33634C0.602125 16.0008 0.00657208 16.5866 0.00212765 17.3101C-0.0307611 19.7395 0.315904 22.2461 1.16301 24.527C2.13101 27.0319 3.57189 28.8772 5.44566 30.0061C7.54521 31.2745 10.9568 31.9999 14.8243 31.9999C16.571 32.0052 18.3149 31.8496 20.0323 31.5341C22.4198 31.1012 24.7176 30.2781 26.8296 29.0985C28.57 28.1039 30.1362 26.839 31.4687 25.3519C33.6953 22.8648 35.0215 20.0959 36.0082 17.6346C36.1406 17.6346 36.2731 17.6346 36.4011 17.6346C38.8393 17.6346 40.338 16.6719 41.1646 15.8657C41.714 15.351 42.1433 14.7244 42.4215 14.0302L42.5966 13.5253L42.1762 13.1973Z" fill="#777777"/>
<path d="M7.04138 15.1111H4.37473C3.88406 15.1111 3.48584 14.7128 3.48584 14.2222V11.5555C3.48584 11.0648 3.88406 10.6666 4.37473 10.6666H7.04138C7.53205 10.6666 7.93027 11.0648 7.93027 11.5555V14.2222C7.93027 14.7128 7.53205 15.1111 7.04138 15.1111Z" fill="#777777"/>
<path d="M12.3744 15.1111H9.70773C9.21707 15.1111 8.81885 14.7128 8.81885 14.2222V11.5555C8.81885 11.0648 9.21707 10.6666 9.70773 10.6666H12.3744C12.8651 10.6666 13.2633 11.0648 13.2633 11.5555V14.2222C13.2633 14.7128 12.8651 15.1111 12.3744 15.1111Z" fill="#777777"/>
<path d="M17.7079 15.1111H15.0412C14.5506 15.1111 14.1523 14.7128 14.1523 14.2222V11.5555C14.1523 11.0648 14.5506 10.6666 15.0412 10.6666H17.7079C18.1985 10.6666 18.5968 11.0648 18.5968 11.5555V14.2222C18.5968 14.7128 18.1985 15.1111 17.7079 15.1111Z" fill="#777777"/>
<path d="M23.0414 15.1111H20.3747C19.8841 15.1111 19.4858 14.7128 19.4858 14.2222V11.5555C19.4858 11.0648 19.8841 10.6666 20.3747 10.6666H23.0414C23.532 10.6666 23.9303 11.0648 23.9303 11.5555V14.2222C23.9303 14.7128 23.532 15.1111 23.0414 15.1111Z" fill="#777777"/>
<path d="M12.3744 9.77774H9.70773C9.21707 9.77774 8.81885 9.37952 8.81885 8.88885V6.2222C8.81885 5.73153 9.21707 5.33331 9.70773 5.33331H12.3744C12.8651 5.33331 13.2633 5.73153 13.2633 6.2222V8.88885C13.2633 9.37952 12.8651 9.77774 12.3744 9.77774Z" fill="#777777"/>
<path d="M17.7079 9.77774H15.0412C14.5506 9.77774 14.1523 9.37952 14.1523 8.88885V6.2222C14.1523 5.73153 14.5506 5.33331 15.0412 5.33331H17.7079C18.1985 5.33331 18.5968 5.73153 18.5968 6.2222V8.88885C18.5968 9.37952 18.1985 9.77774 17.7079 9.77774Z" fill="#777777"/>
<path d="M23.0414 9.77774H20.3747C19.8841 9.77774 19.4858 9.37952 19.4858 8.88885V6.2222C19.4858 5.73153 19.8841 5.33331 20.3747 5.33331H23.0414C23.532 5.33331 23.9303 5.73153 23.9303 6.2222V8.88885C23.9303 9.37952 23.532 9.77774 23.0414 9.77774Z" fill="#777777"/>
<path d="M23.0414 4.44443H20.3747C19.8841 4.44443 19.4858 4.04621 19.4858 3.55554V0.888885C19.4858 0.398221 19.8841 0 20.3747 0H23.0414C23.532 0 23.9303 0.398221 23.9303 0.888885V3.55554C23.9303 4.04621 23.532 4.44443 23.0414 4.44443Z" fill="#777777"/>
<path d="M28.3744 15.1111H25.7077C25.2171 15.1111 24.8188 14.7128 24.8188 14.2222V11.5555C24.8188 11.0648 25.2171 10.6666 25.7077 10.6666H28.3744C28.8651 10.6666 29.2633 11.0648 29.2633 11.5555V14.2222C29.2633 14.7128 28.8651 15.1111 28.3744 15.1111Z" fill="#777777"/>
</svg>
