<svg width="32" height="32" viewBox="0 0 32 32" fill="none" xmlns="http://www.w3.org/2000/svg">
<path d="M16 0C7.2 0 0 7.2 0 16C0 24.8 7.2 32 16 32C24.8 32 32 24.8 32 16C32 7.2 24.8 0 16 0ZM7.0848 24.9152C4.6848 22.5152 3.428 19.3152 3.428 16.2304L15.8848 28.572C12.6848 28.4568 9.4848 27.3144 7.0848 24.9152ZM18.7416 28.2304L3.7712 13.2568C5.028 7.6568 10.0568 3.428 16 3.428C20.2288 3.428 23.8848 5.4848 26.1712 8.5712L24.456 10.056C22.5144 7.428 19.428 5.7144 15.9992 5.7144C11.5424 5.7144 7.7704 8.5712 6.284 12.5712L19.4272 25.7144C22.7424 24.5712 25.256 21.7144 26.056 18.2856H20.5712V16H28.5712C28.5712 21.9432 24.3424 26.9712 18.7424 28.2288L18.7416 28.2304Z" fill="#777777"/>
</svg>
