<svg width="29" height="32" viewBox="0 0 29 32" fill="none" xmlns="http://www.w3.org/2000/svg">
<path d="M28.3891 0.225544C28.2587 0.0815221 28.0712 0 27.8755 0H0.69618C0.500528 0 0.313028 0.0815221 0.182593 0.225544C0.0494408 0.369565 -0.0157766 0.5625 0.00324533 0.758152L2.45161 28.1848C2.47607 28.4728 2.67716 28.712 2.95433 28.7935L14.0929 31.9728C14.1527 31.9918 14.2179 32 14.2831 32C14.3484 32 14.4109 31.9918 14.4734 31.9728L25.6201 28.7935C25.8973 28.712 26.0956 28.4728 26.1228 28.1848L28.5685 0.758152C28.5875 0.5625 28.5223 0.369565 28.3891 0.225544ZM22.5277 9.68207H9.44075L9.75325 13.2228H22.2125L21.2777 23.6875L14.2804 25.8016L14.2125 25.7799L7.29672 23.6848L6.91901 19.4212H10.3076L10.4543 21.0761L14.3212 21.8859L18.1174 21.0761L18.5223 16.5978H6.66629L5.74509 6.29891H22.8293L22.5277 9.68207Z" fill="#777777"/>
</svg>
