<svg width="29" height="32" viewBox="0 0 29 32" fill="none" xmlns="http://www.w3.org/2000/svg">
<path d="M28.3896 0.226087C28.2574 0.082087 28.0717 0 27.8762 0H0.695651C0.500173 0 0.314433 0.082087 0.182259 0.226087C0.0500853 0.370087 -0.0146102 0.563478 0.00278107 0.757565L2.45148 28.185C2.47722 28.4717 2.67687 28.713 2.95374 28.7923L14.0911 31.9736C14.153 31.991 14.2177 32 14.2817 32C14.3457 32 14.4104 31.991 14.4723 31.9736L25.6195 28.7923C25.8963 28.713 26.096 28.4717 26.1217 28.185L28.569 0.757565C28.5864 0.563478 28.521 0.370087 28.3896 0.226087ZM5.24243 18.7854L10.112 20.1363V6.26087H12.8946V24.3478L5.24243 22.2254V18.7854ZM23.367 13.913L22.6337 22.4348L15.6772 24.3478V21.1471L20.3729 19.8567L20.5468 17.248L15.6772 18.087V6.26087H24.025L23.785 9.04348H18.4598V14.6087L23.367 13.913Z" fill="#777777"/>
</svg>
