<svg width="32" height="32" viewBox="0 0 32 32" fill="none" xmlns="http://www.w3.org/2000/svg">
<path d="M19.5359 0.00648264C19.4592 0.017846 19.3825 0.0405727 19.3086 0.0746627C18.6836 0.384314 17.9734 1.30475 17.8371 1.48656C17.8285 1.49792 17.82 1.50929 17.8143 1.52065C17.1127 2.57176 16.7377 3.80184 16.7235 5.08306C16.7149 6.04326 16.9024 6.99494 17.2831 7.91253C18.1694 10.0403 20.0103 11.8016 22.2006 12.6255C22.2745 12.6511 22.3455 12.6766 22.4733 12.7221C22.4847 12.7278 22.5926 12.7618 22.6097 12.7647L22.6892 12.7931C22.8029 12.83 22.9193 12.867 23.033 12.8897C23.6097 13.0062 24.1721 13.0715 24.7005 13.0885C24.7914 13.0885 24.8823 13.0914 24.9733 13.0914C28.959 13.0914 30.5044 10.279 31.0186 9.34148C31.0697 9.25057 31.1066 9.17671 31.1407 9.13125C31.1407 9.12841 31.1407 9.12841 31.1436 9.12557C31.368 8.79319 31.2828 8.3415 30.9504 8.11423C30.6208 7.88981 30.1691 7.97503 29.9419 8.30741H29.939C28.8766 9.87271 27.0584 10.3471 24.5386 9.72215C24.3511 9.67669 24.1466 9.60567 23.9648 9.53749C23.7261 9.45227 23.4875 9.35284 23.2659 9.24489C22.8256 9.02614 22.4108 8.76479 22.0358 8.47502C19.82 6.75631 18.9535 3.1797 20.2489 1.11441C20.4222 0.838848 20.391 0.480902 20.1722 0.239431C20.0075 0.0576174 19.7688 -0.0247668 19.5359 0.00648264ZM13.0929 1.45531C12.9281 1.45247 12.7605 1.50644 12.6241 1.62008C11.5247 2.51494 10.3998 3.98081 10.3515 4.04047C10.3458 4.05184 10.3401 4.06036 10.3316 4.07172C8.34299 6.96654 8.19243 11.0858 9.9509 14.5658C10.2265 15.1169 10.539 15.6425 10.8713 16.1254L10.9708 16.2674C11.252 16.6794 11.5673 17.1453 11.9707 17.5089C12.1099 17.668 12.2605 17.8214 12.4082 17.9691L12.4793 18.043L12.5389 18.1026C12.6895 18.2475 12.8429 18.3952 13.002 18.5373H13.0048C13.0162 18.5543 13.0332 18.5657 13.0474 18.5799C13.2264 18.739 13.4082 18.8895 13.6497 19.0799L13.715 19.1282C13.9025 19.2787 14.0928 19.4208 14.2889 19.56C14.3088 19.5742 14.3286 19.5884 14.3485 19.6026C14.4167 19.648 14.4849 19.6906 14.5531 19.7389L14.6212 19.7844L14.7008 19.8355C14.8457 19.9321 14.9877 20.0202 15.1894 20.1367C15.3201 20.2162 15.4593 20.2957 15.5502 20.3412C15.59 20.3639 15.6326 20.3867 15.732 20.4406L15.9536 20.5571C15.965 20.5628 16.0161 20.5855 16.0275 20.5912C16.1723 20.6651 16.3229 20.7361 16.4735 20.8043L16.7036 20.9065C16.8541 20.9719 17.0075 21.0344 17.195 21.1054L17.2803 21.1366C17.2859 21.1423 17.357 21.1679 17.3627 21.1707C17.499 21.219 17.6382 21.2673 17.7774 21.3128L18.0956 21.4179C18.2547 21.4719 18.4393 21.5344 18.641 21.5684C19.6325 21.7332 20.5955 21.8184 21.5074 21.8184C21.6154 21.8184 21.7233 21.8156 21.8284 21.8156C29.8567 21.6395 31.9447 14.8186 31.9646 14.7504C32.064 14.4067 31.9021 14.0402 31.5782 13.8868C31.2543 13.7334 30.868 13.8414 30.6663 14.1368C28.6323 17.1083 24.7858 18.364 20.8682 17.3299C20.6864 17.2845 20.5103 17.2333 20.2916 17.1623C20.2546 17.1509 20.2234 17.1396 20.1637 17.1168C20.0359 17.0771 19.9109 17.0345 19.7688 16.9805L19.5671 16.9038C19.4507 16.8583 19.3342 16.8129 19.1922 16.7504L19.0984 16.7078C18.9251 16.6339 18.7575 16.5515 18.6069 16.4777L18.1922 16.2618C18.0984 16.2163 18.016 16.1652 17.8882 16.0885L17.8172 16.0487L17.7462 16.0061C17.6411 15.9436 17.5359 15.8782 17.4394 15.8101L17.3712 15.7675C17.3655 15.7646 17.3087 15.7248 17.303 15.7192C17.2178 15.6652 17.1354 15.6112 17.0558 15.5601C16.8797 15.4351 16.7064 15.3044 16.5047 15.1453L16.4252 15.08C14.5502 13.5828 13.1639 11.5829 12.5133 9.43806C11.9082 7.46936 12.3571 4.89272 13.715 2.54619C13.8911 2.24222 13.8258 1.85587 13.5559 1.6286C13.4224 1.51497 13.2576 1.45531 13.0929 1.45531ZM5.09023 3.63707C4.91694 3.63707 4.74081 3.69957 4.60161 3.82457C3.21244 5.0717 2.17269 6.68813 2.05906 6.87279C-0.91246 11.1994 -0.33861 17.9236 1.70111 22.0343C1.74088 22.1196 1.7835 22.2019 1.82611 22.2843L1.85452 22.3298C1.89145 22.4122 1.93406 22.4974 1.94826 22.5144C1.97099 22.5684 2.00508 22.6281 2.01928 22.6451C2.05337 22.7161 2.08746 22.7786 2.14996 22.8866L2.38291 23.2872C2.417 23.3411 2.45109 23.3979 2.46246 23.4178C2.50791 23.4917 2.5562 23.5684 2.6045 23.6451L2.71813 23.8269C2.75222 23.8809 2.78631 23.9292 2.80904 23.9576C2.92267 24.1337 3.03631 24.3099 3.1613 24.4775C3.16698 24.486 3.17267 24.4917 3.17835 24.4973L3.2238 24.5598C3.32607 24.7076 3.43118 24.8496 3.52493 24.9661L3.93969 25.4916C3.94537 25.4973 3.99083 25.5513 3.99367 25.557L4.05332 25.6252C4.17832 25.7786 4.31184 25.932 4.44536 26.0797C4.46525 26.1024 4.48513 26.1223 4.50502 26.145C4.63286 26.2842 4.76353 26.4234 4.8999 26.5683L5.03057 26.6933C5.13853 26.8069 5.24648 26.9177 5.36011 27.0229C5.36011 27.0257 5.41409 27.0768 5.41409 27.0768L5.52772 27.1819C5.66408 27.3126 5.80612 27.4433 5.91407 27.5342C5.91975 27.5427 6.02202 27.6308 6.03055 27.6365C6.16407 27.7558 6.29759 27.8694 6.43395 27.9802L7.12995 28.5313C7.24643 28.6166 7.36574 28.7018 7.5021 28.8012C7.54756 28.8353 7.59585 28.8694 7.64414 28.9006C7.66403 28.9177 7.68676 28.9347 7.70096 28.9433L8.22367 29.2927C8.41401 29.4177 8.60435 29.5342 8.8373 29.6734L8.96229 29.7444C9.10718 29.8296 9.2549 29.9148 9.3941 29.9887C9.47648 30.0341 9.55887 30.0739 9.62989 30.1108C9.72932 30.1648 9.83727 30.2245 10.002 30.304C10.0162 30.3125 10.1327 30.3694 10.1469 30.375C10.3117 30.4574 10.4793 30.5341 10.6895 30.6279C10.6895 30.6307 10.7577 30.662 10.7577 30.662C10.9509 30.7444 11.1384 30.8239 11.3855 30.9233C11.4253 30.9404 11.4651 30.9546 11.4736 30.9574C11.6497 31.0256 11.8344 31.0938 11.9849 31.1477C11.9991 31.1534 12.0759 31.1847 12.0901 31.1904C12.2918 31.2585 12.4906 31.3239 12.7463 31.4034C12.7889 31.4176 12.8344 31.4318 12.84 31.4318L12.9849 31.4773C13.1611 31.5313 13.3372 31.5881 13.5275 31.625C14.8798 31.8722 16.2007 32 17.4507 32H17.4536C27.8709 32 31.189 23.6167 31.2231 23.5315C31.3509 23.1934 31.2117 22.8127 30.8936 22.6366C30.5811 22.4633 30.1834 22.5457 29.9618 22.8326C27.2885 26.3524 22.2461 27.6592 16.4735 26.3325C16.3343 26.2984 16.1922 26.2587 16.053 26.2161L15.7803 26.1337C15.5956 26.0769 15.411 26.0144 15.232 25.9519C15.2292 25.9519 15.1468 25.9206 15.1468 25.9206C14.9877 25.8666 14.8286 25.8041 14.6894 25.7502L14.5303 25.6877C14.3542 25.6166 14.1781 25.5428 14.0076 25.4661L13.9082 25.4235C13.7548 25.3524 13.6071 25.2843 13.4593 25.2104C13.448 25.2047 13.3315 25.1479 13.3201 25.1451C13.2179 25.0939 13.1156 25.0399 12.9849 24.9689L12.3912 24.6508C12.3315 24.611 12.269 24.5741 12.2094 24.5428C12.0304 24.432 11.8457 24.3212 11.6639 24.2047C11.6213 24.1792 11.5844 24.1508 11.5134 24.1025C11.3884 24.0229 11.2662 23.9405 11.0872 23.8155L11.0162 23.7644C10.8941 23.6792 10.7747 23.5883 10.6753 23.5144C10.6128 23.469 10.5503 23.4178 10.4481 23.3411C10.3571 23.2701 10.2662 23.2019 10.181 23.1337L10.0219 23.0031C9.88841 22.8951 9.76341 22.7815 9.63273 22.6707C9.61569 22.6536 9.60148 22.6423 9.58159 22.6281C9.43671 22.4946 9.28899 22.361 9.11286 22.1934L8.59867 21.6821C8.47367 21.5542 8.34867 21.4236 8.20663 21.2673C8.07595 21.1224 7.95095 20.9775 7.78334 20.7787L7.47653 20.4037C7.4396 20.3497 7.39983 20.2957 7.35154 20.2389C7.24643 20.0969 7.14132 19.9577 7.0362 19.81C4.20673 15.9123 3.46811 7.77617 5.6726 4.79614C5.89419 4.49785 5.85442 4.0774 5.57601 3.82457C5.43965 3.69957 5.26352 3.63707 5.09023 3.63707Z" fill="#777777"/>
</svg>
