<svg width="33" height="32" viewBox="0 0 33 32" fill="none" xmlns="http://www.w3.org/2000/svg">
<path d="M16.3157 22.8765C16.3157 22.8765 16.308 22.8457 16.3003 22.7842C16.3157 22.8457 16.3157 22.8765 16.3157 22.8765Z" fill="#777777"/>
<path d="M18.5255 4.23359C18.5255 4.23359 18.2373 3.17673 18.6216 2.31204C19.0059 1.44734 19.0059 0.870873 18.2373 0.00617512C19.7745 -0.0899025 20.351 0.966951 20.351 0.966951L20.3702 1.08916C20.4609 1.67792 20.1566 2.23748 19.6431 2.54032C19.1743 2.81625 18.67 3.32047 18.5255 4.23359Z" fill="#777777"/>
<path d="M29.4822 25.459C29.4976 25.2976 29.7435 23.1224 29.1901 22.1079C28.0372 25.3668 26.8843 28.3491 23.5254 30.4628C24.0019 29.502 24.7706 27.9647 25.5392 25.6589C23.2333 28.7334 18.6216 31.8078 15.1628 32C17.4994 30.7087 18.8138 29.0485 19.3902 27.9647C19.3902 27.9647 18.0451 28.3491 16.408 28.5412C18.6216 27.1961 20.1588 24.798 19.3902 21.0472C17.853 25.851 15.7393 27.3883 12.9492 27.6727C10.1668 27.9647 7.66875 26.5197 7.66875 26.5197L8.62953 26.4275C8.62953 26.4275 6.13151 24.5059 7.00006 22.0079C7.03849 21.885 7.0846 21.7697 7.13841 21.6621C7.76868 20.2632 9.91313 20.9703 9.69023 22.4845V22.4922C9.69023 22.4922 10.3589 24.3138 12.1806 23.8296C12.7647 22.8765 13.149 21.908 13.149 21.908L13.4334 23.1609C13.4334 23.1609 14.7785 22.5844 14.7785 21.5237C15.9314 21.9618 16.2235 22.5075 16.2927 22.7458C16.0928 21.6697 14.3558 14.2679 5.15537 14.3755L3.54895 15.8667C3.44134 15.9666 3.27225 15.882 3.28762 15.7437L3.4106 14.5139L3.5182 14.4063C3.48746 14.414 3.44903 14.4063 3.41828 14.4063L3.4106 14.5139L2.78033 15.098C2.67272 15.198 2.50363 15.1134 2.519 14.9751L2.59586 14.1911C1.25846 13.6223 1.13548 12.1158 1.13548 12.1158C1.13548 12.1158 -0.532426 11.6469 0.174705 9.51785C0.559015 8.36492 1.48136 8.24963 1.87336 8.34186C2.37296 8.45715 2.88794 8.46484 3.36448 8.27269C4.05624 7.99598 4.94015 7.46563 5.55505 6.44337C6.70798 4.52182 8.43738 3.7532 12.1806 3.7532C17.1382 3.7532 19.1366 5.27507 19.3672 5.45953C19.2288 5.29812 18.391 4.18362 20.1588 2.50803C21.9036 0.847811 21.5885 0.455815 21.5193 0.394325C21.7806 0.471187 25.1702 1.62412 25.5392 6.05906C25.9235 10.6708 20.5431 11.6316 20.5431 11.6316C20.5431 11.6316 27.4607 12.9766 27.553 6.44337C28.9057 7.21199 31.6881 10.0943 32.0725 16.3432C32.4491 22.3999 29.6436 25.2976 29.4822 25.459Z" fill="#777777"/>
<path d="M3.51825 14.4063L3.41064 14.5139L3.41833 14.4063C3.44908 14.4063 3.48751 14.414 3.51825 14.4063Z" fill="#777777"/>
<path d="M3.51825 14.4063L3.41064 14.5139L3.41833 14.4063C3.44908 14.4063 3.48751 14.414 3.51825 14.4063Z" fill="#777777"/>
</svg>
