<svg width="32" height="32" viewBox="0 0 32 32" fill="none" xmlns="http://www.w3.org/2000/svg">
<path d="M11.9792 22C11.9792 22.6624 11.4424 23.2 10.7792 23.2C10.116 23.2 9.5792 22.6624 9.5792 22V10.8C9.5792 10.2776 9.9176 9.8152 10.4152 9.656C10.9152 9.4976 11.4568 9.68 11.7584 10.1064L25.18 29.0696C29.2936 26.1672 32 21.388 32 16C32 7.2 24.8 0 16 0C7.2 0 0 7.2 0 16C0 24.8 7.2 32 16 32C18.5536 32 20.9648 31.3784 23.112 30.3024L11.9792 14.5728V22ZM19.9792 10C19.9792 9.3376 20.516 8.8 21.1792 8.8C21.8424 8.8 22.3792 9.3376 22.3792 10V21.072L19.9792 17.6904V10Z" fill="#777777"/>
</svg>
