<svg width="29" height="32" viewBox="0 0 29 32" fill="none" xmlns="http://www.w3.org/2000/svg">
<path d="M14.1981 32C13.7693 32 13.3443 31.888 12.9685 31.6713L9.05429 29.3534C8.46939 29.0262 8.75474 28.9104 8.94747 28.844C9.72733 28.5713 9.88494 28.5093 10.7171 28.0365C10.8045 27.9864 10.9188 28.0043 11.0084 28.0574L14.0158 29.8419C14.1241 29.901 14.2787 29.901 14.3788 29.8419L26.1044 23.0735C26.2127 23.0115 26.2836 22.886 26.2836 22.7567V9.22647C26.2836 9.09126 26.2134 8.971 26.1021 8.90377L14.3818 2.1405C14.2735 2.07626 14.1293 2.07626 14.021 2.1405L2.30223 8.90302C2.18869 8.96726 2.11623 9.0935 2.11623 9.22273V22.7537C2.11623 22.883 2.18644 23.0062 2.29849 23.0675L5.50981 24.9223C7.25329 25.794 8.3185 24.7669 8.3185 23.7338V10.3798C8.3185 10.1893 8.4679 10.0422 8.65913 10.0422H10.1441C10.3294 10.0422 10.4818 10.1886 10.4818 10.3798V23.7405C10.4818 26.0652 9.21414 27.4008 7.00977 27.4008C6.3315 27.4008 5.7974 27.4008 4.30641 26.6672L1.2303 24.8946C0.469858 24.4539 0 23.6315 0 22.7545V9.22348C0 8.34278 0.469858 7.52109 1.22955 7.08634L12.9678 0.314857C13.7103 -0.104952 14.6963 -0.104952 15.4336 0.314857L27.1569 7.08932C27.9128 7.52631 28.3857 8.34576 28.3857 9.22647V22.7575C28.3857 23.6352 27.9128 24.4539 27.1561 24.8946L15.4328 31.6653C15.0571 31.8827 14.6313 31.994 14.1973 31.994" fill="#777777"/>
<path d="M17.8203 22.676C12.6899 22.676 11.6143 20.3208 11.6143 18.3457C11.6143 18.1582 11.7659 18.0081 11.9541 18.0081H13.469C13.6364 18.0081 13.7775 18.1299 13.8037 18.2949C14.0323 19.8382 14.7135 20.6166 17.8158 20.6166C20.2868 20.6166 21.3378 20.0586 21.3378 18.7476C21.3378 17.9932 21.0383 17.4329 17.1995 17.0572C13.9882 16.7404 12.0042 16.033 12.0042 13.4649C12.0042 11.0992 14.0001 9.69034 17.3429 9.69034C21.0973 9.69034 22.9581 10.9938 23.1926 13.7936C23.2016 13.8907 23.1665 13.984 23.1015 14.055C23.0373 14.1222 22.9461 14.1633 22.852 14.1633H21.3289C21.1705 14.1633 21.0323 14.052 21.0002 13.8989C20.6334 12.2757 19.7468 11.7565 17.337 11.7565C14.6396 11.7565 14.3258 12.6955 14.3258 13.3999C14.3258 14.2537 14.6956 14.5032 18.3349 14.985C21.9392 15.4631 23.6505 16.1384 23.6505 18.6714C23.6505 21.2246 21.5194 22.6895 17.8038 22.6895" fill="#777777"/>
</svg>
