<svg width="36" height="32" viewBox="0 0 36 32" fill="none" xmlns="http://www.w3.org/2000/svg">
<path fill-rule="evenodd" clip-rule="evenodd" d="M24.8014 0.00243458C24.2076 -0.0175324 23.5861 0.0859967 22.9629 0.288039C21.7165 0.692124 20.4104 1.47959 19.07 2.5699C18.5447 2.99719 18.0147 3.48563 17.4828 4.00387C16.9627 3.49878 16.4436 3.02346 15.9299 2.6056C14.5906 1.51616 13.288 0.728396 12.0445 0.325227C10.8009 -0.0779431 9.56354 -0.0904358 8.5473 0.496292C7.53106 1.08302 6.92334 2.16006 6.65071 3.43861C6.37808 4.71715 6.40811 6.23974 6.68195 7.94431C6.77706 8.53639 6.91271 9.15753 7.06721 9.79033C6.48653 9.96631 5.92262 10.1513 5.3997 10.3556C3.82157 10.972 2.51576 11.7094 1.56487 12.5869C0.613982 13.4644 0 14.5293 0 15.6988C0 16.8682 0.613982 17.9317 1.56487 18.8092C2.51576 19.6867 3.82157 20.4256 5.3997 21.0419C5.95886 21.2603 6.56424 21.457 7.18919 21.6429C6.9644 22.4828 6.78227 23.2979 6.65815 24.0705C6.38409 25.7765 6.35515 27.2992 6.6284 28.5807C6.90164 29.8621 7.50967 30.9453 8.53093 31.5349C9.5522 32.1245 10.7951 32.1101 12.0415 31.706C13.2879 31.3019 14.5925 30.5159 15.9328 29.4256C16.4533 29.0022 16.9798 28.5193 17.5066 28.0065C18.0363 28.5224 18.5649 29.0076 19.0879 29.433C20.4272 30.5225 21.7312 31.3088 22.9748 31.7119C24.2183 32.1151 25.4557 32.1276 26.4719 31.5409C27.4882 30.9541 28.0944 29.8771 28.367 28.5985C28.6397 27.32 28.6096 25.7989 28.3358 24.0943C28.2113 23.3196 28.0291 22.5018 27.8033 21.6593C28.4489 21.4688 29.0734 21.2669 29.6493 21.0419C31.2274 20.4256 32.5332 19.6867 33.4841 18.8092C34.435 17.9317 35.049 16.8682 35.049 15.6988C35.049 14.5293 34.435 13.4644 33.4841 12.5869C32.5332 11.7094 31.2274 10.972 29.6493 10.3556C29.1188 10.1484 28.5463 9.96097 27.9565 9.78289C28.1122 9.14622 28.2505 8.52062 28.3462 7.92497C28.6203 6.21903 28.6492 4.69477 28.376 3.41332C28.1027 2.13187 27.4932 1.05022 26.4719 0.460591C25.9613 0.165777 25.3953 0.0224016 24.8014 0.00243458ZM24.7315 1.55243C25.1042 1.56262 25.422 1.65129 25.694 1.80829C26.2378 2.12227 26.6398 2.73336 26.8542 3.73909C27.0687 4.74482 27.0613 6.10367 26.8081 7.67953C26.7214 8.21908 26.5956 8.7909 26.4526 9.37679C24.8947 9.00187 23.1876 8.72366 21.3682 8.56014C20.4549 7.29482 19.5164 6.14209 18.5702 5.11951C19.0707 4.63096 19.5679 4.17404 20.0533 3.77925C21.2914 2.77208 22.4636 2.08675 23.4418 1.76961C23.931 1.61104 24.3589 1.54224 24.7315 1.55243ZM10.2788 1.55689C10.6536 1.54643 11.0824 1.61504 11.5729 1.77407C12.554 2.09213 13.7282 2.77715 14.9674 3.7852C15.443 4.17207 15.9291 4.62029 16.4193 5.0972C15.4661 6.12815 14.5198 7.29087 13.6004 8.56758C11.7887 8.73407 10.0886 9.0138 8.53837 9.39018C8.39645 8.80754 8.27058 8.23866 8.18434 7.70185C7.93097 6.12461 7.92464 4.76557 8.13972 3.75694C8.35479 2.74831 8.76005 2.13261 9.30891 1.81572C9.58334 1.65728 9.90399 1.56736 10.2788 1.55689ZM17.5066 6.21581C18.1271 6.89097 18.7476 7.6298 19.3631 8.42478C18.7583 8.39957 18.1462 8.38462 17.5245 8.38462C16.8904 8.38462 16.2666 8.40005 15.6502 8.42627C16.2658 7.63068 16.8861 6.89148 17.5066 6.21581ZM17.5245 9.92271C18.5602 9.92271 19.5697 9.96527 20.5516 10.0373C21.2272 11.0077 21.8875 12.0372 22.5166 13.1268C23.0694 14.0843 23.5696 15.0403 24.025 15.9844C23.5648 16.941 23.0562 17.9099 22.4958 18.8806C22.0025 19.735 21.4873 20.5466 20.9636 21.329C19.8545 21.4217 18.7052 21.4733 17.5245 21.4733C16.3153 21.4733 15.1402 21.4187 14.0065 21.3216C13.4916 20.5504 12.9851 19.7511 12.4996 18.9103C11.9405 17.9419 11.4343 16.9747 10.9749 16.0201C11.4363 15.06 11.9447 14.0875 12.5071 13.1134C13.1329 12.0295 13.7912 11.0059 14.4632 10.0402C15.4557 9.96663 16.4769 9.92271 17.5245 9.92271ZM22.5121 10.2277C23.7676 10.3843 24.9465 10.6018 26.0435 10.8628C25.718 11.93 25.317 13.0446 24.8312 14.1949C24.5157 13.5868 24.189 12.9766 23.836 12.3652C23.4083 11.6243 22.9627 10.9179 22.5121 10.2277ZM12.455 10.2396C12.014 10.9169 11.58 11.6095 11.1609 12.3355C10.8033 12.9547 10.4699 13.5731 10.1508 14.1889C9.6692 13.0456 9.27065 11.9373 8.94744 10.8762C10.0363 10.6147 11.2083 10.398 12.455 10.2396ZM27.5504 11.2674C28.0903 11.4308 28.6117 11.6013 29.09 11.7881C30.5448 12.3563 31.6955 13.0291 32.4414 13.7174C33.1872 14.4056 33.5109 15.062 33.5109 15.6988C33.5109 16.3355 33.1872 16.9919 32.4414 17.6801C31.6955 18.3684 30.5448 19.0412 29.09 19.6095C28.5585 19.817 27.9745 20.0053 27.3674 20.1836C26.9343 18.8441 26.3816 17.4467 25.7237 16.0201C26.4801 14.3822 27.0912 12.7852 27.5504 11.2674ZM7.47331 11.2749C7.92728 12.7775 8.53048 14.3586 9.27618 15.9799C8.614 17.4148 8.05849 18.8202 7.62355 20.1673C7.03784 19.9936 6.47368 19.8105 5.95901 19.6095C4.50422 19.0412 3.35346 18.3684 2.60762 17.6801C1.86179 16.9919 1.5381 16.3355 1.5381 15.6988C1.5381 15.062 1.86179 14.4056 2.60762 13.7174C3.35346 13.0291 4.50422 12.3563 5.95901 11.7881C6.42993 11.6041 6.9426 11.4361 7.47331 11.2749ZM17.5245 12.2001C15.4304 12.2001 13.7164 13.9141 13.7164 16.0082C13.7164 18.1023 15.4304 19.8162 17.5245 19.8162C19.6186 19.8162 21.3325 18.1023 21.3325 16.0082C21.3325 13.9141 19.6186 12.2001 17.5245 12.2001ZM10.1687 17.8096C10.4891 18.4285 10.8223 19.0495 11.1817 19.6719C11.4629 20.1589 11.75 20.633 12.0415 21.0985C11.0187 20.9566 10.0464 20.7771 9.13338 20.5644C9.42373 19.6752 9.77109 18.7521 10.1687 17.8096ZM24.8505 17.8096C25.2497 18.7543 25.5973 19.6789 25.8888 20.5704C24.9729 20.7828 23.9976 20.9617 22.9718 21.1029C23.2671 20.6317 23.5587 20.1518 23.8435 19.6585C24.2002 19.0407 24.5321 18.4239 24.8505 17.8096ZM8.69456 22.043C10.0729 22.3696 11.567 22.6204 13.1512 22.7838C14.2087 24.3134 15.3105 25.6879 16.4193 26.8894C15.9234 27.3728 15.432 27.8265 14.9511 28.2177C13.7129 29.2249 12.5392 29.9088 11.561 30.2259C10.5828 30.543 9.85274 30.5012 9.30891 30.1872C8.76508 29.8732 8.36458 29.2621 8.15013 28.2564C7.93567 27.2507 7.9416 25.8933 8.19476 24.3175C8.3096 23.6026 8.48124 22.8371 8.69456 22.043ZM26.3291 22.049C26.5442 22.8478 26.7164 23.6162 26.8319 24.3353C27.0853 25.9125 27.0916 27.2716 26.8765 28.2802C26.6615 29.2888 26.2592 29.906 25.7103 30.2229C25.1615 30.5398 24.4244 30.5811 23.4433 30.2631C22.4623 29.945 21.288 29.26 20.0488 28.252C19.5644 27.8579 19.0696 27.4005 18.5702 26.9132C19.6864 25.707 20.796 24.3255 21.8606 22.7868C23.4488 22.6245 24.947 22.3751 26.3291 22.049ZM15.1385 22.94C15.9205 22.9826 16.7128 23.0114 17.5245 23.0114C18.3093 23.0114 19.0759 22.9844 19.8331 22.9445C19.0591 23.9888 18.2701 24.9382 17.4843 25.7931C16.699 24.9363 15.9115 23.9853 15.1385 22.94Z" fill="#777777"/>
</svg>
