<svg width="34" height="32" viewBox="0 0 34 32" fill="none" xmlns="http://www.w3.org/2000/svg">
<path d="M16.02 0C11.0331 0 6.97571 5.76907 6.97571 12.8611C6.97571 16.5249 8.06446 19.824 9.80068 22.1649C9.73526 22.5163 9.748 22.8778 9.838 23.2238C9.92801 23.5697 10.0931 23.8915 10.3215 24.1665C10.5499 24.4415 10.836 24.6628 11.1595 24.8147C11.4831 24.9666 11.8361 25.0455 12.1935 25.0456C12.8393 25.0456 13.4587 24.7891 13.9153 24.3324C14.372 23.8758 14.6285 23.2564 14.6285 22.6106C14.6285 21.9648 14.372 21.3455 13.9153 20.8888C13.4587 20.4322 12.8393 20.1756 12.1935 20.1756C12.061 20.1766 11.9288 20.1884 11.7981 20.211C10.5541 18.3579 9.75856 15.7311 9.75856 12.8611C9.75856 7.39773 12.6263 2.78285 16.02 2.78285C18.8856 2.78285 21.3694 6.07878 22.0748 10.3922C23.0641 10.676 24.0496 11.06 25.0153 11.5241C24.5436 5.05814 20.6896 0 16.02 0ZM14.9764 10.4357C14.3306 10.4357 13.7112 10.6922 13.2546 11.1489C12.7979 11.6055 12.5414 12.2249 12.5414 12.8707C12.5414 13.5165 12.7979 14.1358 13.2546 14.5925C13.7112 15.0491 14.3306 15.3056 14.9764 15.3056C15.4316 15.3054 15.8776 15.1776 16.2638 14.9367C16.65 14.6958 16.9609 14.3514 17.1614 13.9428C19.4222 13.8012 22.0351 14.4987 24.4473 15.9443C29.2199 18.8057 31.8153 23.8094 30.1135 26.8705C29.5542 27.8765 28.5465 28.6 27.1989 28.9603C25.2586 29.4793 22.8791 29.2155 20.5353 28.2728C19.7916 28.9643 18.9739 29.6135 18.0813 30.2104C20.3966 31.3799 22.8452 32 25.1077 32C26.0886 32 27.0355 31.8846 27.9191 31.6481C30.0111 31.088 31.6115 29.9033 32.5458 28.2225C35.0392 23.7359 32.1103 17.2942 25.8781 13.5582C22.9127 11.7797 19.6276 10.9601 16.7401 11.1966C16.5131 10.9568 16.2397 10.7657 15.9365 10.6349C15.6333 10.5041 15.3066 10.4363 14.9764 10.4357ZM5.69571 14.8355C0.769381 18.6417 -1.34357 24.2103 0.88688 28.2225C1.82122 29.9033 3.42163 31.088 5.51363 31.6481C6.39788 31.8846 7.34267 32 8.32501 32C10.9687 32 13.8702 31.1607 16.5118 29.5772C19.4671 27.8055 21.6523 25.4239 22.8915 22.9327C24.1097 22.7999 25.0642 21.7765 25.0642 20.5235C25.0642 19.1808 23.9719 18.0885 22.6292 18.0885C21.2865 18.0885 20.1942 19.1808 20.1942 20.5235C20.1942 20.8993 20.2861 21.2516 20.4388 21.5698C19.4342 23.6394 17.5599 25.7033 15.081 27.1898C12.0922 28.982 8.78431 29.6442 6.23244 28.9603C4.88555 28.6 3.8785 27.8765 3.31915 26.8705C1.97365 24.4494 3.32065 20.8181 6.30038 17.9879C6.01445 16.9861 5.80981 15.9312 5.69571 14.8355Z" fill="#777777"/>
</svg>
