<svg width="43" height="32" viewBox="0 0 43 32" fill="none" xmlns="http://www.w3.org/2000/svg">
<path d="M36.7411 18.3932C35.2495 18.4009 33.9568 18.7595 32.8733 19.2931C32.4771 18.5025 32.0758 17.8066 32.0084 17.2892C31.9298 16.6855 31.8384 16.3252 31.9332 15.6054C32.028 14.8857 32.4447 13.8671 32.4378 13.7911C32.4319 13.7151 32.3448 13.3488 31.4841 13.3419C30.6234 13.336 29.8874 13.5076 29.8004 13.7347C29.7133 13.9618 29.5476 14.4733 29.4452 15.0069C29.294 15.7873 27.7273 18.5708 26.8367 20.0266C26.5456 19.4579 26.298 18.9576 26.2467 18.5614C26.1682 17.9577 26.0768 17.5974 26.1716 16.8776C26.2664 16.1579 26.683 15.1393 26.6762 15.0633C26.6702 14.9873 26.5831 14.621 25.7225 14.6141C24.8618 14.6082 24.1258 14.7798 24.0387 15.0069C23.9516 15.234 23.8594 15.7651 23.6835 16.2791C23.5068 16.7931 21.4234 21.4354 20.8778 22.6384C20.5995 23.2515 20.3579 23.7441 20.1871 24.0805C20.1862 24.0797 20.1862 24.0788 20.1862 24.0788C20.1862 24.0788 20.176 24.101 20.1572 24.1395C20.0112 24.4255 19.9241 24.5843 19.9241 24.5843C19.9241 24.5843 19.925 24.5869 19.9267 24.5903C19.8106 24.8003 19.6868 24.9958 19.6253 24.9958C19.5826 24.9958 19.4964 24.4357 19.6441 23.6681C19.954 22.0578 20.6985 19.5459 20.6917 19.4596C20.6883 19.4152 20.83 18.9781 20.205 18.7484C19.598 18.5264 19.3811 18.897 19.3256 18.8978C19.2718 18.8987 19.2317 19.0284 19.2317 19.0284C19.2317 19.0284 19.9088 16.204 17.9407 16.204C16.7112 16.204 15.0069 17.5496 14.1668 18.7689C13.6374 19.0575 12.5035 19.6765 11.3005 20.3374C10.8385 20.5909 10.3672 20.8505 9.91982 21.0973C9.88908 21.064 9.85919 21.0298 9.8276 20.9965C7.44201 18.4513 3.03284 16.6514 3.21983 13.2301C3.28813 11.9861 3.72017 8.71078 11.6932 4.73792C18.2242 1.48313 23.453 2.37879 24.3563 4.36394C25.6473 7.19951 21.5618 12.4702 14.7798 13.2301C12.1953 13.5195 10.8351 12.518 10.4962 12.1449C10.1401 11.7521 10.0872 11.7342 9.95397 11.8085C9.7371 11.9289 9.87456 12.2755 9.95397 12.4821C10.1563 13.009 10.9871 13.9439 12.4045 14.4084C13.651 14.8174 16.6847 15.0419 20.3545 13.6229C24.4639 12.033 27.6726 7.61105 26.7308 3.91483C25.772 0.155423 19.539 -1.08007 13.6399 1.01523C10.129 2.26267 6.32862 4.2205 3.59551 6.77601C0.345841 9.81564 -0.171579 12.4608 0.0418778 13.5656C0.800931 17.4933 6.21335 20.0505 8.38122 21.946C8.27449 22.0049 8.17374 22.0604 8.08238 22.1108C6.99546 22.6487 2.86976 24.808 1.83748 27.0894C0.66688 29.6774 2.02361 31.5345 2.92269 31.7846C5.70617 32.5591 8.56308 31.1656 10.0983 28.8756C11.6335 26.5865 11.4456 23.6058 10.7412 22.2448C10.7327 22.2277 10.7224 22.2115 10.7139 22.1944C10.9948 22.0279 11.2808 21.8597 11.5643 21.6932C12.1176 21.3688 12.6606 21.0657 13.1319 20.8087C12.8681 21.531 12.6751 22.3968 12.5744 23.6477C12.4565 25.1171 13.0585 27.016 13.8466 27.7631C14.1932 28.0918 14.6107 28.0995 14.8754 28.0995C15.7924 28.0995 16.2108 27.337 16.671 26.4345C17.2363 25.328 17.7375 24.0404 17.7375 24.0404C17.7375 24.0404 17.1082 27.5198 18.8227 27.5198C19.4468 27.5198 20.0753 26.7095 20.3553 26.2971C20.3562 26.3013 20.3562 26.3039 20.3562 26.3039C20.3562 26.3039 20.3724 26.2774 20.404 26.2228C20.4689 26.1238 20.5056 26.0606 20.5056 26.0606C20.5056 26.0606 20.5073 26.0537 20.509 26.0426C20.76 25.6072 21.3167 24.6133 22.1518 22.974C23.2301 20.8565 24.265 18.2045 24.265 18.2045C24.265 18.2045 24.3615 18.8534 24.6765 19.925C24.8618 20.5559 25.2563 21.2535 25.5671 21.9221C25.3169 22.2696 25.1632 22.4685 25.1632 22.4685C25.1632 22.4685 25.1649 22.4719 25.1675 22.4788C24.9677 22.7443 24.7431 23.0303 24.5083 23.3104C23.6571 24.3247 22.6427 25.4825 22.507 25.8172C22.3473 26.2108 22.3849 26.5011 22.6939 26.7334C22.9194 26.9033 23.3215 26.9298 23.7416 26.9016C24.5066 26.8504 25.0454 26.66 25.3109 26.5447C25.725 26.3987 26.2074 26.1682 26.66 25.8352C27.495 25.2213 27.9988 24.3427 27.951 23.1789C27.9245 22.5377 27.7196 21.9024 27.4609 21.3022C27.5369 21.1929 27.6128 21.0836 27.6888 20.9718C29.0054 19.0464 30.0266 16.9314 30.0266 16.9314C30.0266 16.9314 30.1231 17.5803 30.4382 18.6519C30.5978 19.1949 30.9129 19.7866 31.1955 20.3672C29.9575 21.3731 29.1899 22.5419 28.9226 23.3087C28.43 24.7269 28.8159 25.3698 29.5399 25.5158C29.8678 25.5824 30.3314 25.4322 30.6798 25.2844C31.1135 25.141 31.6344 24.9011 32.1211 24.5433C32.9561 23.9294 33.7596 23.0696 33.7109 21.9058C33.6887 21.3765 33.5452 20.8505 33.3506 20.345C34.3999 19.9079 35.7592 19.6645 37.4899 19.8669C41.2032 20.3006 41.9315 22.6188 41.7924 23.5887C41.6532 24.5595 40.8745 25.0923 40.6141 25.2537C40.3537 25.4151 40.2743 25.4706 40.2965 25.5901C40.3281 25.7643 40.4484 25.7575 40.6704 25.7199C40.9761 25.6687 42.6197 24.931 42.6906 23.1396C42.7794 20.8701 40.6004 18.3727 36.7411 18.3932ZM8.12251 28.0415C6.893 29.3828 5.17424 29.89 4.43739 29.4631C3.64162 29.002 3.95668 27.0263 5.46625 25.6029C6.38582 24.7354 7.5735 23.9362 8.36158 23.4436C8.54088 23.336 8.80386 23.1772 9.12405 22.9851C9.17699 22.9552 9.20687 22.9381 9.20687 22.9381L9.20602 22.9364C9.26749 22.8997 9.33153 22.8613 9.39642 22.822C9.94543 24.849 9.4135 26.6335 8.12251 28.0415ZM17.0817 21.9502C16.6531 22.9945 15.7566 25.6661 15.211 25.5227C14.7422 25.3997 14.4571 23.3685 15.1171 21.3705C15.4492 20.3647 16.1587 19.1625 16.5763 18.6954C17.2474 17.9449 17.9868 17.699 18.1661 18.0038C18.3958 18.3915 17.3507 21.2954 17.0817 21.9502ZM24.4844 25.4825C24.3026 25.5773 24.1361 25.6371 24.0592 25.591C24.002 25.5568 24.1343 25.4322 24.1343 25.4322C24.1343 25.4322 25.0599 24.4357 25.4253 23.9824C25.6371 23.7185 25.8838 23.4052 26.1511 23.0551C26.1537 23.0901 26.1545 23.1251 26.1545 23.1593C26.1511 24.3529 24.9984 25.1581 24.4844 25.4825ZM30.1871 24.1822C30.0514 24.0857 30.0744 23.774 30.5193 22.8041C30.6943 22.4233 31.093 21.7812 31.7872 21.1681C31.8675 21.42 31.917 21.6616 31.9153 21.8871C31.9059 23.3889 30.8343 23.9499 30.1871 24.1822Z" fill="#777777"/>
</svg>
