<svg width="26" height="32" viewBox="0 0 26 32" fill="none" xmlns="http://www.w3.org/2000/svg">
<g clip-path="url(#clip0_1001_2)">
<path d="M10.4856 0.00956273C6.80533 -0.11733 3.12543 1.02471 0.0795898 3.43588L2.10998 4.57802C4.52125 2.80131 7.56668 2.03995 10.4856 2.16685V0.00956273Z" fill="#777777"/>
<path d="M21.2719 4.8318C18.7339 2.16684 15.4345 0.517131 11.8813 0.136452V2.29373C14.9272 2.80131 17.592 4.19723 19.7493 6.35462L21.2719 4.8318Z" fill="#777777"/>
<path d="M25.8404 15.2376C25.7136 11.9382 24.4446 8.6388 22.2873 5.84695L20.7642 7.36976C22.541 9.78083 23.5563 12.4459 23.6832 15.2376H25.8404Z" fill="#777777"/>
<path d="M22.2873 26.1511C24.4446 23.3593 25.7136 20.0599 25.8404 16.7605H23.6832C23.5564 19.5523 22.541 22.2173 20.7642 24.6283L22.2873 26.1511Z" fill="#777777"/>
<path d="M11.8813 31.8617C15.3077 31.4811 18.7339 29.8312 21.272 27.1664L19.7493 25.6436C17.5921 27.9278 14.7999 29.3237 11.8813 29.7044V31.8617Z" fill="#777777"/>
<path d="M0.0795898 28.5623C3.12543 30.9734 6.80533 32.1155 10.4856 31.9886V29.8312C7.56668 29.9582 4.64814 29.1968 2.10998 27.4202L0.0795898 28.5623Z" fill="#777777"/>
<path d="M9.90585 7.17927C11.2622 7.17927 12.514 7.41021 13.6614 7.8722C14.8088 8.31929 15.7924 8.9452 16.6123 9.74993C17.4467 10.5548 18.0949 11.5011 18.557 12.5891C19.0192 13.6621 19.25 14.8245 19.25 16.0764C19.25 17.3282 19.0192 18.4981 18.557 19.586C18.0949 20.659 17.4467 21.5979 16.6123 22.4026C15.7924 23.2074 14.8088 23.8408 13.6614 24.3028C12.514 24.7499 11.2622 24.9735 9.90595 24.9735C8.53488 24.9735 7.27531 24.7499 6.12793 24.3028C4.99515 23.8408 4.01936 23.2074 3.19953 22.4027C2.37971 21.5979 1.7391 20.659 1.27702 19.586C0.814928 18.4981 0.583984 17.3282 0.583984 16.0764C0.583984 14.8246 0.814928 13.6621 1.27702 12.5891C1.7391 11.5011 2.37971 10.5548 3.19953 9.75003C4.01936 8.9452 4.99515 8.31929 6.12793 7.8723C7.27531 7.41021 8.53498 7.17927 9.90585 7.17927ZM9.90585 11.4266C9.26484 11.4266 8.65402 11.5458 8.07279 11.7842C7.50665 12.0078 7.00713 12.3282 6.57503 12.7456C6.14303 13.1628 5.79998 13.6546 5.5467 14.2209C5.29352 14.7872 5.16673 15.4057 5.16673 16.0764C5.16673 16.747 5.29352 17.3654 5.5467 17.9318C5.79998 18.4981 6.14303 18.9899 6.57513 19.4072C7.00713 19.8245 7.50665 20.1522 8.07279 20.3907C8.65402 20.6143 9.26484 20.726 9.90585 20.726C10.5469 20.726 11.1504 20.6143 11.7166 20.3907C12.2978 20.1522 12.8047 19.8245 13.2367 19.4072C13.6838 18.9899 14.0341 18.4981 14.2873 17.9318C14.5405 17.3654 14.6674 16.747 14.6674 16.0764C14.6674 15.4057 14.5406 14.7872 14.2873 14.2209C14.0341 13.6546 13.6838 13.1628 13.2368 12.7456C12.8047 12.3282 12.2978 12.0078 11.7166 11.7842C11.1504 11.5458 10.5469 11.4266 9.90585 11.4266Z" fill="#777777"/>
</g>
<defs>
<clipPath id="clip0_1001_2">
<rect width="25.92" height="32" fill="white"/>
</clipPath>
</defs>
</svg>
