<svg width="32" height="32" viewBox="0 0 32 32" fill="none" xmlns="http://www.w3.org/2000/svg">
<path d="M31.2381 0H0.761905C0.340571 0 0 0.341333 0 0.761905V31.2381C0 31.6587 0.340571 32 0.761905 32H31.2381C31.6594 32 32 31.6587 32 31.2381V0.761905C32 0.341333 31.6594 0 31.2381 0ZM19.0476 17.101H15.2381V28.9524H12.1905V17.101H8.38095V14.4762H19.0476V17.101ZM19.9017 28.2758V25.1078C19.9017 25.1078 21.632 26.4122 23.7082 26.4122C25.7844 26.4122 25.7044 25.0545 25.7044 24.8686C25.7044 22.8983 19.8217 22.8983 19.8217 18.5333C19.8217 12.5973 28.3931 14.9394 28.3931 14.9394L28.2865 17.7615C28.2865 17.7615 26.8488 16.803 25.2251 16.803C23.6015 16.803 23.0156 17.5749 23.0156 18.4C23.0156 20.5295 28.9516 20.317 28.9516 24.6027C28.9524 31.2038 19.9017 28.2758 19.9017 28.2758Z" fill="#777777"/>
</svg>
