<svg width="29" height="32" viewBox="0 0 29 32" fill="none" xmlns="http://www.w3.org/2000/svg">
<path d="M13.647 16.4706V24.9412L5.64697 20.7059V11.7647L13.647 16.4706Z" fill="#777777"/>
<path d="M14.5884 16.4706V24.9412L22.5884 20.7059V11.7647L14.5884 16.4706Z" fill="#777777"/>
<path d="M14.1177 15.5294L6.11768 10.8235L14.1177 6.58823L22.1177 10.8235L14.1177 15.5294Z" fill="#777777"/>
<path d="M13.6472 0V5.64706L5.17659 10.3529L0.470703 7.52941L13.6472 0Z" fill="#777777"/>
<path d="M13.6472 32V26.3529L5.17659 21.6471L0.470703 24.4706L13.6472 32Z" fill="#777777"/>
<path d="M4.70588 11.2941L0 8.47059V23.5294L4.70588 20.7059V11.2941Z" fill="#777777"/>
<path d="M14.5884 0V5.64706L23.059 10.3529L27.7648 7.52941L14.5884 0Z" fill="#777777"/>
<path d="M14.5884 32V26.3529L23.059 21.6471L27.7648 24.4706L14.5884 32Z" fill="#777777"/>
<path d="M23.5293 11.2941L28.2352 8.47059V23.5294L23.5293 20.7059V11.2941Z" fill="#777777"/>
</svg>
